<svg width="20" height="20" viewBox="0 0 20 20" fill="none" xmlns="http://www.w3.org/2000/svg">
<path d="M15.9192 8.2966C15.4031 8.2966 14.9092 8.39313 14.4543 8.56871C14.0979 7.77668 13.79 6.93906 13.6362 6.1598C13.3892 4.90832 12.2833 4 11.0066 4C10.683 4 10.4206 4.26234 10.4206 4.58594C10.4206 4.90953 10.683 5.17188 11.0066 5.17188C11.146 5.17188 11.2817 5.19133 11.4111 5.22746C11.8041 5.3373 12.1377 5.60316 12.3322 5.9602C12.3165 5.9802 12.3015 6.00094 12.2882 6.0234L12.1061 6.32984L11.1852 7.88023H6.26473L5.98504 7.17629H6.10113C6.42473 7.17629 6.68707 6.91395 6.68707 6.59035C6.68707 6.26676 6.42473 6.00441 6.10113 6.00441H4.08086C3.75727 6.00441 3.49492 6.26676 3.49492 6.59035C3.49492 6.91395 3.75727 7.17629 4.08086 7.17629H4.72406L5.23539 8.46316C4.86914 8.35496 4.48172 8.29656 4.08086 8.29656C1.83066 8.2966 0 10.1273 0 12.3774C0 14.6276 1.83066 16.4582 4.08082 16.4582C6.13203 16.4582 7.83437 14.9369 8.11941 12.9634H9.19547C9.40219 12.9634 9.59363 12.8544 9.69922 12.6767L12.7784 7.49285C12.959 8.05184 13.1851 8.61191 13.4288 9.14699C12.4621 9.89395 11.8384 11.0641 11.8384 12.3775C11.8384 14.6276 13.669 16.4583 15.9192 16.4583C18.1693 16.4583 20 14.6276 20 12.3775C20 10.1273 18.1693 8.2966 15.9192 8.2966ZM4.08082 12.9634H6.93047C6.65859 14.2875 5.48418 15.2864 4.08082 15.2864C2.47684 15.2863 1.17188 13.9814 1.17188 12.3774C1.17188 10.7734 2.47684 9.46848 4.08082 9.46848C5.48418 9.46848 6.65859 10.4674 6.93047 11.7915H4.08082C3.75723 11.7915 3.49488 12.0538 3.49488 12.3774C3.49488 12.701 3.75723 12.9634 4.08082 12.9634ZM8.86199 11.7915H8.11941C7.98344 10.8501 7.52504 10.0118 6.86 9.39223C6.85391 9.36871 6.84684 9.34527 6.83762 9.32211L6.73035 9.05215H10.4891L8.86199 11.7915ZM15.9192 15.2863C14.3152 15.2863 13.0102 13.9814 13.0102 12.3774C13.0102 11.5277 13.3766 10.762 13.9595 10.2296C14.6801 11.6068 15.384 12.6334 15.437 12.7102C15.5507 12.875 15.7336 12.9634 15.9197 12.9634C16.0345 12.9634 16.1504 12.9297 16.252 12.8596C16.5184 12.6757 16.5852 12.3108 16.4014 12.0445C16.3888 12.0262 15.6797 10.9922 14.9697 9.62836C15.2675 9.5252 15.5868 9.4684 15.9192 9.4684C17.5232 9.4684 18.8281 10.7734 18.8281 12.3773C18.8281 13.9813 17.5232 15.2863 15.9192 15.2863Z" fill="#07D1D3"/>
</svg>
