<svg width="36" height="36" viewBox="0 0 36 36" fill="none" xmlns="http://www.w3.org/2000/svg">
<path d="M28.6545 14.5215C27.7256 14.5215 26.8366 14.6952 26.0177 15.0113C25.3762 13.5856 24.8219 12.0779 24.5451 10.6752C24.1005 8.42257 22.1099 6.7876 19.8118 6.7876C19.2293 6.7876 18.7571 7.25982 18.7571 7.84229C18.7571 8.42475 19.2293 8.89697 19.8118 8.89697C20.0628 8.89697 20.3071 8.93199 20.5399 8.99703C21.2475 9.19475 21.8479 9.67329 22.198 10.3159C22.1697 10.3519 22.1427 10.3893 22.1187 10.4297L21.791 10.9813L20.1334 13.772H11.2765L10.7731 12.5049H10.982C11.5645 12.5049 12.0367 12.0327 12.0367 11.4502C12.0367 10.8678 11.5645 10.3955 10.982 10.3955H7.34555C6.76308 10.3955 6.29086 10.8678 6.29086 11.4502C6.29086 12.0327 6.76308 12.5049 7.34555 12.5049H8.50331L9.4237 14.8213C8.76445 14.6265 8.06709 14.5214 7.34555 14.5214C3.2952 14.5215 0 17.8167 0 21.867C0 25.9172 3.2952 29.2124 7.34548 29.2124C11.0377 29.2124 14.1019 26.474 14.6149 22.9216H16.5518C16.9239 22.9216 17.2685 22.7255 17.4586 22.4056L23.0011 13.0747C23.3262 14.0809 23.7332 15.089 24.1719 16.0522C22.4319 17.3967 21.309 19.5031 21.309 21.867C21.309 25.9173 24.6042 29.2125 28.6545 29.2125C32.7048 29.2125 36 25.9173 36 21.867C36 17.8167 32.7048 14.5215 28.6545 14.5215ZM7.34548 22.9216H12.4748C11.9855 25.305 9.87152 27.1031 7.34548 27.1031C4.4583 27.103 2.10938 24.7541 2.10938 21.867C2.10938 18.9798 4.4583 16.6309 7.34548 16.6309C9.87152 16.6309 11.9855 18.4289 12.4748 20.8123H7.34548C6.76301 20.8123 6.29079 21.2845 6.29079 21.867C6.29079 22.4494 6.76301 22.9216 7.34548 22.9216ZM15.9516 20.8123H14.6149C14.3702 19.1178 13.5451 17.6088 12.348 16.4936C12.337 16.4513 12.3243 16.4091 12.3077 16.3674L12.1146 15.8815H18.8805L15.9516 20.8123ZM28.6545 27.103C25.7673 27.103 23.4184 24.7541 23.4184 21.8669C23.4184 20.3374 24.0778 18.9591 25.1271 18.0009C26.4242 20.4798 27.6912 22.3278 27.7865 22.466C27.9912 22.7625 28.3205 22.9216 28.6554 22.9216C28.862 22.9216 29.0708 22.861 29.2537 22.7348C29.733 22.4039 29.8534 21.7471 29.5225 21.2677C29.4998 21.2348 28.2235 19.3735 26.9454 16.9186C27.4815 16.7329 28.0562 16.6307 28.6545 16.6307C31.5417 16.6307 33.8906 18.9796 33.8906 21.8668C33.8906 24.754 31.5417 27.103 28.6545 27.103Z" fill="#07D1D3"/>
</svg>
