<svg width="18" height="18" viewBox="0 0 18 18" fill="none" xmlns="http://www.w3.org/2000/svg">
<g clip-path="url(#clip0_3_1987)">
<path d="M9.7725 1.40255L1.53 0.150046C1.1475 0.0900464 0.7575 0.195046 0.465 0.442546C0.1725 0.697546 0 1.06505 0 1.44755V17.25C0 17.6625 0.3375 18 0.75 18H3.1875V14.0625C3.1875 13.335 3.7725 12.75 4.5 12.75H6.375C7.1025 12.75 7.6875 13.335 7.6875 14.0625V18H10.875V2.70005C10.875 2.05505 10.41 1.50755 9.7725 1.40255ZM4.125 11.0625H3C2.6895 11.0625 2.4375 10.8105 2.4375 10.5C2.4375 10.1895 2.6895 9.93755 3 9.93755H4.125C4.4355 9.93755 4.6875 10.1895 4.6875 10.5C4.6875 10.8105 4.4355 11.0625 4.125 11.0625ZM4.125 8.81255H3C2.6895 8.81255 2.4375 8.56055 2.4375 8.25005C2.4375 7.93955 2.6895 7.68755 3 7.68755H4.125C4.4355 7.68755 4.6875 7.93955 4.6875 8.25005C4.6875 8.56055 4.4355 8.81255 4.125 8.81255ZM4.125 6.56255H3C2.6895 6.56255 2.4375 6.31055 2.4375 6.00005C2.4375 5.68955 2.6895 5.43755 3 5.43755H4.125C4.4355 5.43755 4.6875 5.68955 4.6875 6.00005C4.6875 6.31055 4.4355 6.56255 4.125 6.56255ZM4.125 4.31255H3C2.6895 4.31255 2.4375 4.06055 2.4375 3.75005C2.4375 3.43955 2.6895 3.18755 3 3.18755H4.125C4.4355 3.18755 4.6875 3.43955 4.6875 3.75005C4.6875 4.06055 4.4355 4.31255 4.125 4.31255ZM7.875 11.0625H6.75C6.4395 11.0625 6.1875 10.8105 6.1875 10.5C6.1875 10.1895 6.4395 9.93755 6.75 9.93755H7.875C8.1855 9.93755 8.4375 10.1895 8.4375 10.5C8.4375 10.8105 8.1855 11.0625 7.875 11.0625ZM7.875 8.81255H6.75C6.4395 8.81255 6.1875 8.56055 6.1875 8.25005C6.1875 7.93955 6.4395 7.68755 6.75 7.68755H7.875C8.1855 7.68755 8.4375 7.93955 8.4375 8.25005C8.4375 8.56055 8.1855 8.81255 7.875 8.81255ZM7.875 6.56255H6.75C6.4395 6.56255 6.1875 6.31055 6.1875 6.00005C6.1875 5.68955 6.4395 5.43755 6.75 5.43755H7.875C8.1855 5.43755 8.4375 5.68955 8.4375 6.00005C8.4375 6.31055 8.1855 6.56255 7.875 6.56255ZM7.875 4.31255H6.75C6.4395 4.31255 6.1875 4.06055 6.1875 3.75005C6.1875 3.43955 6.4395 3.18755 6.75 3.18755H7.875C8.1855 3.18755 8.4375 3.43955 8.4375 3.75005C8.4375 4.06055 8.1855 4.31255 7.875 4.31255Z" fill="#07D1D3"/>
<path d="M17.215 8.13156L11.875 7.01331V18.0001H16.9375C17.6613 18.0001 18.25 17.4113 18.25 16.6876V9.41406C18.25 8.79456 17.8278 8.26731 17.215 8.13156ZM15.4375 15.7501H14.3125C14.002 15.7501 13.75 15.4981 13.75 15.1876C13.75 14.8771 14.002 14.6251 14.3125 14.6251H15.4375C15.748 14.6251 16 14.8771 16 15.1876C16 15.4981 15.748 15.7501 15.4375 15.7501ZM15.4375 13.5001H14.3125C14.002 13.5001 13.75 13.2481 13.75 12.9376C13.75 12.6271 14.002 12.3751 14.3125 12.3751H15.4375C15.748 12.3751 16 12.6271 16 12.9376C16 13.2481 15.748 13.5001 15.4375 13.5001ZM15.4375 11.2501H14.3125C14.002 11.2501 13.75 10.9981 13.75 10.6876C13.75 10.3771 14.002 10.1251 14.3125 10.1251H15.4375C15.748 10.1251 16 10.3771 16 10.6876C16 10.9981 15.748 11.2501 15.4375 11.2501Z" fill="#07D1D3"/>
</g>
<defs>
<clipPath id="clip0_3_1987">
<rect width="18" height="18" fill="white"/>
</clipPath>
</defs>
</svg>
