<svg width="28" height="28" viewBox="0 0 28 28" fill="none" xmlns="http://www.w3.org/2000/svg">
<g clip-path="url(#clip0_3_632)">
<path d="M15.2017 2.18177L2.38 0.233433C1.785 0.140099 1.17833 0.303433 0.723333 0.688433C0.268333 1.0851 0 1.65677 0 2.25177V26.8334C0 27.4751 0.525 28.0001 1.16667 28.0001H4.95833V21.8751C4.95833 20.7434 5.86833 19.8334 7 19.8334H9.91667C11.0483 19.8334 11.9583 20.7434 11.9583 21.8751V28.0001H16.9167V4.2001C16.9167 3.19677 16.1933 2.3451 15.2017 2.18177ZM6.41667 17.2084H4.66667C4.18367 17.2084 3.79167 16.8164 3.79167 16.3334C3.79167 15.8504 4.18367 15.4584 4.66667 15.4584H6.41667C6.89967 15.4584 7.29167 15.8504 7.29167 16.3334C7.29167 16.8164 6.89967 17.2084 6.41667 17.2084ZM6.41667 13.7084H4.66667C4.18367 13.7084 3.79167 13.3164 3.79167 12.8334C3.79167 12.3504 4.18367 11.9584 4.66667 11.9584H6.41667C6.89967 11.9584 7.29167 12.3504 7.29167 12.8334C7.29167 13.3164 6.89967 13.7084 6.41667 13.7084ZM6.41667 10.2084H4.66667C4.18367 10.2084 3.79167 9.81643 3.79167 9.33343C3.79167 8.85043 4.18367 8.45843 4.66667 8.45843H6.41667C6.89967 8.45843 7.29167 8.85043 7.29167 9.33343C7.29167 9.81643 6.89967 10.2084 6.41667 10.2084ZM6.41667 6.70843H4.66667C4.18367 6.70843 3.79167 6.31643 3.79167 5.83343C3.79167 5.35043 4.18367 4.95843 4.66667 4.95843H6.41667C6.89967 4.95843 7.29167 5.35043 7.29167 5.83343C7.29167 6.31643 6.89967 6.70843 6.41667 6.70843ZM12.25 17.2084H10.5C10.017 17.2084 9.625 16.8164 9.625 16.3334C9.625 15.8504 10.017 15.4584 10.5 15.4584H12.25C12.733 15.4584 13.125 15.8504 13.125 16.3334C13.125 16.8164 12.733 17.2084 12.25 17.2084ZM12.25 13.7084H10.5C10.017 13.7084 9.625 13.3164 9.625 12.8334C9.625 12.3504 10.017 11.9584 10.5 11.9584H12.25C12.733 11.9584 13.125 12.3504 13.125 12.8334C13.125 13.3164 12.733 13.7084 12.25 13.7084ZM12.25 10.2084H10.5C10.017 10.2084 9.625 9.81643 9.625 9.33343C9.625 8.85043 10.017 8.45843 10.5 8.45843H12.25C12.733 8.45843 13.125 8.85043 13.125 9.33343C13.125 9.81643 12.733 10.2084 12.25 10.2084ZM12.25 6.70843H10.5C10.017 6.70843 9.625 6.31643 9.625 5.83343C9.625 5.35043 10.017 4.95843 10.5 4.95843H12.25C12.733 4.95843 13.125 5.35043 13.125 5.83343C13.125 6.31643 12.733 6.70843 12.25 6.70843Z" fill="#07D1D3"/>
<path d="M26.7789 12.6492L18.4722 10.9097V28.0002H26.3472C27.4731 28.0002 28.3889 27.0843 28.3889 25.9585V14.6442C28.3889 13.6805 27.7321 12.8603 26.7789 12.6492ZM24.0139 24.5002H22.2639C21.7809 24.5002 21.3889 24.1082 21.3889 23.6252C21.3889 23.1422 21.7809 22.7502 22.2639 22.7502H24.0139C24.4969 22.7502 24.8889 23.1422 24.8889 23.6252C24.8889 24.1082 24.4969 24.5002 24.0139 24.5002ZM24.0139 21.0002H22.2639C21.7809 21.0002 21.3889 20.6082 21.3889 20.1252C21.3889 19.6422 21.7809 19.2502 22.2639 19.2502H24.0139C24.4969 19.2502 24.8889 19.6422 24.8889 20.1252C24.8889 20.6082 24.4969 21.0002 24.0139 21.0002ZM24.0139 17.5002H22.2639C21.7809 17.5002 21.3889 17.1082 21.3889 16.6252C21.3889 16.1422 21.7809 15.7502 22.2639 15.7502H24.0139C24.4969 15.7502 24.8889 16.1422 24.8889 16.6252C24.8889 17.1082 24.4969 17.5002 24.0139 17.5002Z" fill="#07D1D3"/>
</g>
<defs>
<clipPath id="clip0_3_632">
<rect width="28" height="28" fill="white"/>
</clipPath>
</defs>
</svg>
