<svg width="18" height="19" viewBox="0 0 18 19" fill="none" xmlns="http://www.w3.org/2000/svg">
<path fill-rule="evenodd" clip-rule="evenodd" d="M9 18.5C13.9706 18.5 18 14.4706 18 9.5C18 4.52944 13.9706 0.5 9 0.5C4.02944 0.5 0 4.52944 0 9.5C0 14.4706 4.02944 18.5 9 18.5ZM8.05263 12.6152H7.42105C4.98322 12.6152 3 10.632 3 8.19418V6.61523H4.57895C7.01678 6.61523 9 8.59852 9 11.0363C9 8.59852 10.9832 6.61523 13.4211 6.61523H15V8.19418C15 10.632 13.0168 12.6152 10.5789 12.6152H9.94737V15.1416H8.05263V12.6152Z" fill="#07D1D3"/>
</svg>
