<svg width="18" height="18" viewBox="0 0 18 18" fill="none" xmlns="http://www.w3.org/2000/svg">
<path fill-rule="evenodd" clip-rule="evenodd" d="M9 18C13.9706 18 18 13.9706 18 9C18 4.02944 13.9706 0 9 0C4.02944 0 0 4.02944 0 9C0 13.9706 4.02944 18 9 18ZM8.05263 12.1152H7.42105C4.98322 12.1152 3 10.132 3 7.69418V6.11523H4.57895C7.01678 6.11523 9 8.09852 9 10.5363C9 8.09852 10.9832 6.11523 13.4211 6.11523H15V7.69418C15 10.132 13.0168 12.1152 10.5789 12.1152H9.94737V14.6416H8.05263V12.1152Z" fill="#07D1D3"/>
</svg>
