<svg width="107" height="40" viewBox="0 0 107 40" fill="none" xmlns="http://www.w3.org/2000/svg">
<rect width="107" height="40" rx="20" fill="white"/>
<path fill-rule="evenodd" clip-rule="evenodd" d="M30 30C35.5228 30 40 25.5228 40 20C40 14.4772 35.5228 10 30 10C24.4772 10 20 14.4772 20 20C20 25.5228 24.4772 30 30 30ZM28.9472 23.4615H28.2454C25.5367 23.4615 23.3332 21.2578 23.3332 18.5492V16.7948H25.0875C27.7962 16.7948 29.9998 18.9985 29.9998 21.7071C29.9998 18.9985 32.2034 16.7948 34.9121 16.7948H36.6665V18.5492C36.6665 21.2578 34.4629 23.4615 31.7542 23.4615H31.0525V26.2685H28.9472V23.4615Z" fill="#07D1D3"/>
<path d="M57.4418 17.0497C57.3045 16.6188 57.1198 16.233 56.8878 15.892C56.6605 15.5464 56.3883 15.2528 56.071 15.0114C55.7538 14.7652 55.3916 14.5781 54.9844 14.4503C54.5819 14.3224 54.1392 14.2585 53.6562 14.2585C52.8371 14.2585 52.0985 14.4692 51.4403 14.8906C50.7822 15.312 50.2614 15.9299 49.8778 16.7443C49.4991 17.554 49.3097 18.5459 49.3097 19.7202C49.3097 20.8991 49.5014 21.8958 49.8849 22.7102C50.2685 23.5246 50.794 24.1425 51.4616 24.5639C52.1293 24.9853 52.8892 25.196 53.7415 25.196C54.5322 25.196 55.2211 25.035 55.8082 24.7131C56.4001 24.3911 56.857 23.9366 57.179 23.3494C57.5057 22.7576 57.669 22.0616 57.669 21.2614L58.2372 21.3679H54.0753V19.5568H59.7926V21.2116C59.7926 22.4332 59.5322 23.4938 59.0114 24.3935C58.4953 25.2884 57.7803 25.9796 56.8665 26.4673C55.9574 26.955 54.9157 27.1989 53.7415 27.1989C52.4252 27.1989 51.2699 26.8958 50.2756 26.2898C49.286 25.6837 48.5142 24.8243 47.9602 23.7116C47.4063 22.5942 47.1293 21.2685 47.1293 19.7344C47.1293 18.5743 47.2902 17.5327 47.6122 16.6094C47.9342 15.6861 48.3864 14.9025 48.9688 14.2585C49.5559 13.6098 50.2448 13.1151 51.0355 12.7741C51.831 12.4285 52.6998 12.2557 53.642 12.2557C54.428 12.2557 55.1596 12.3717 55.8366 12.6037C56.5185 12.8357 57.1245 13.1648 57.6548 13.5909C58.1899 14.017 58.6326 14.5237 58.983 15.1108C59.3333 15.6932 59.5701 16.3395 59.6932 17.0497H57.4418ZM62.5785 27V12.4545H67.7631C68.89 12.4545 69.8252 12.6487 70.5685 13.0369C71.3166 13.4252 71.8754 13.9626 72.2447 14.6491C72.614 15.331 72.7987 16.1193 72.7987 17.0142C72.7987 17.9044 72.6116 18.688 72.2376 19.3651C71.8683 20.0374 71.3095 20.5606 70.5614 20.9347C69.8181 21.3087 68.8829 21.4957 67.756 21.4957H63.8285V19.6065H67.5572C68.2674 19.6065 68.8451 19.5047 69.2901 19.3011C69.7399 19.0975 70.069 18.8016 70.2773 18.4134C70.4857 18.0251 70.5898 17.5587 70.5898 17.0142C70.5898 16.465 70.4833 15.9891 70.2702 15.5866C70.0619 15.1842 69.7328 14.8764 69.283 14.6634C68.8379 14.4455 68.2532 14.3366 67.5288 14.3366H64.7731V27H62.5785ZM69.7589 20.4375L73.3526 27H70.8526L67.3299 20.4375H69.7589ZM74.7518 14.3438V12.4545H86.0089V14.3438H81.4705V27H79.283V14.3438H74.7518Z" fill="#1E1E1E"/>
</svg>
