<svg width="25" height="29" viewBox="0 0 25 29" fill="none" xmlns="http://www.w3.org/2000/svg">
<path d="M11.6041 0.448925L1.7843 5.36923L1.7843 5.36923C1.00553 5.75945 0.616138 5.95456 0.616138 6.26328C0.616138 6.572 1.00553 6.76711 1.78431 7.15733L11.6041 12.0776C12.0437 12.2979 12.2635 12.408 12.5 12.408C12.7365 12.408 12.9563 12.2979 13.3959 12.0776L23.2157 7.15733C23.9945 6.76711 24.3839 6.572 24.3839 6.26328C24.3839 5.95456 23.9945 5.75945 23.2157 5.36923L13.3959 0.448925C12.9563 0.228648 12.7365 0.118509 12.5 0.118509C12.2635 0.118509 12.0437 0.228648 11.6041 0.448925Z" fill="#07D1D3"/>
<path fill-rule="evenodd" clip-rule="evenodd" d="M4.68716 11.7441L10.7081 14.761L10.7081 14.761C11.5873 15.2016 12.027 15.4218 12.5 15.4218C12.973 15.4218 13.4127 15.2016 14.2919 14.761L20.3129 11.7441L23.2157 13.1987C23.9945 13.5889 24.3839 13.784 24.3839 14.0927C24.3839 14.4014 23.9945 14.5965 23.2157 14.9867L13.396 19.9071C12.9563 20.1273 12.7365 20.2375 12.5 20.2375C12.2635 20.2375 12.0437 20.1273 11.6041 19.9071L1.78432 14.9867L1.78431 14.9867C1.00554 14.5965 0.61615 14.4014 0.61615 14.0927C0.61615 13.784 1.00554 13.5889 1.78431 13.1987L1.78431 13.1987L1.78431 13.1987L4.68716 11.7441Z" fill="#07D1D3"/>
<path fill-rule="evenodd" clip-rule="evenodd" d="M4.68639 19.5735L10.7081 22.5908L10.7082 22.5908C11.5874 23.0313 12.027 23.2516 12.5 23.2516C12.9731 23.2516 13.4127 23.0313 14.2919 22.5908L20.3137 19.5735L23.2157 21.0276C23.9945 21.4178 24.3839 21.6129 24.3839 21.9217C24.3839 22.2304 23.9945 22.4255 23.2157 22.8157L13.396 27.736C12.9563 27.9563 12.7365 28.0664 12.5 28.0664C12.2635 28.0664 12.0437 27.9563 11.6041 27.736L1.78432 22.8157L1.78431 22.8157C1.00554 22.4255 0.61615 22.2304 0.61615 21.9217C0.61615 21.6129 1.00554 21.4178 1.78431 21.0276L1.78431 21.0276L1.78431 21.0276L4.68639 19.5735Z" fill="#07D1D3"/>
</svg>
